<?xml version="1.0" encoding="utf-8"?><svg width="170" height="1773" viewBox="0 0 170 1773" xmlns="http://www.w3.org/2000/svg" xmlns:xlink="http://www.w3.org/1999/xlink"><svg viewBox="-11 -11 56 46.87" width="56" height="46.87" id="book-blue-theme" xmlns="http://www.w3.org/2000/svg"><defs><style>.aast0{fill:#4d4d4d}</style></defs><path class="aast0" d="M2.152 1.459c6.846-4.003 14.072 1.502 14.072 1.502v18.396s-5.064-4.314-14.072-1.752zm29.646 18.146c-9.008-2.562-14.072 1.752-14.072 1.752V2.961s7.226-5.505 14.072-1.502zM16.995 24.87l-.36-.34C10.449 18.745.751 21.817.661 21.847l-.661.22V2.79h1.001v17.906c2.362-.65 10.239-2.202 15.964 2.773 5.074-4.845 13.612-3.193 16.034-2.593V2.961H34v19.247l-.641-.191c-.11-.03-10.679-3.092-16.014 2.493z"/></svg><svg version="1.1" id="chevron-circle-blue-theme" y="47" viewBox="-10 -10 41 41" width="41" height="41" xmlns="http://www.w3.org/2000/svg"><style>.abst0{fill:#f9a921}.abst1{fill:#fff}</style><g transform="translate(.5 .5)"><circle class="abst0" cx="10" cy="10" r="10"/><path class="abst1" d="M15.48 12.55c-.44.45-1.04.48-1.58 0L10 8.8l-3.91 3.75c-.53.48-1.14.45-1.57 0-.44-.44-.41-1.2 0-1.61.41-.42 4.69-4.5 4.69-4.5a1.076 1.076 0 011.57 0s4.29 4.08 4.7 4.5c.42.42.44 1.17 0 1.61z"/></g></svg><svg version="1.1" id="chevron-circle-hover-blue-theme" y="88" viewBox="-10 -10 41 41" width="41" height="41" xmlns="http://www.w3.org/2000/svg"><style>.acst0{fill:#c78005}.acst1{fill:#fff}</style><g transform="translate(.5 .5)"><circle class="acst0" cx="10" cy="10" r="10"/><path class="acst1" d="M15.48 12.55c-.44.45-1.04.48-1.58 0L10 8.8l-3.91 3.75c-.53.48-1.14.45-1.57 0-.44-.44-.41-1.2 0-1.61.41-.42 4.69-4.5 4.69-4.5a1.076 1.076 0 011.57 0s4.29 4.08 4.7 4.5c.42.42.44 1.17 0 1.61z"/></g></svg><svg version="1.1" id="email-circle-icon" y="129" viewBox="-10 -10 170 170" xml:space="preserve" width="170" height="170" xmlns="http://www.w3.org/2000/svg"><style>.adst0,.adst1{fill-rule:evenodd;clip-rule:evenodd;fill:#008e9a}.adst1{fill:#fff}.adst2{clip-path:url(#adSVGID_2_)}.adst3{fill:#fff}.adst4{clip-path:url(#adSVGID_4_)}.adst5{clip-path:url(#adSVGID_6_)}.adst6{clip-path:url(#adSVGID_8_)}.adst7{clip-path:url(#adSVGID_10_)}</style><circle class="adst0" cx="75" cy="75" r="75"/><path id="ada" class="adst1" d="M89.4 74.9l32 28.8V46.1l-32 28.8z"/><defs><path id="adSVGID_1_" d="M89.4 74.9l32 28.8V46.1z"/></defs><clipPath id="adSVGID_2_"><use xlink:href="#adSVGID_1_" overflow="visible"/></clipPath><g class="adst2"><path id="adc" class="adst3" d="M-190.4-1641.7h2065v2987h-2065v-2987z"/></g><path id="add" class="adst1" d="M74.2 87.9l-9.1-8.2-31.7 28.8H115L83.3 79.7l-9.1 8.2z"/><defs><path id="adSVGID_3_" d="M74.2 87.9l-9.1-8.2-31.7 28.8H115L83.3 79.7z"/></defs><clipPath id="adSVGID_4_"><use xlink:href="#adSVGID_3_" overflow="visible"/></clipPath><g class="adst4"><path id="adf" class="adst3" d="M-190.4-1641.7h2065v2987h-2065v-2987z"/></g><g><path id="adg" class="adst1" d="M28.6 103.7l32-28.8-32-28.8v57.6z"/><defs><path id="adSVGID_5_" d="M28.6 103.7l32-28.8-32-28.8z"/></defs><clipPath id="adSVGID_6_"><use xlink:href="#adSVGID_5_" overflow="visible"/></clipPath><g class="adst5"><path id="adi" class="adst3" d="M-190.4-1641.7h2065v2987h-2065v-2987z"/></g></g><g><path id="adj" class="adst1" d="M33.7 41.5L75 78l41.3-36.5H33.7zm46.8 22.8c-1.4 0-2.4-.5-3.1-1.6-.9 1.1-2.1 1.6-3.4 1.6-1.5 0-2.7-.6-3.8-1.8-1.1-1.2-1.6-2.8-1.6-4.8s.6-3.7 1.8-5c1.2-1.3 2.6-1.9 4.3-1.9 1 0 2 .4 2.9 1.1l.2-.8h3.4l-1 8c-.1.6-.1 1-.1 1.4 0 .5.2.8.7.8.9 0 1.7-.5 2.5-1.6s1.2-2.5 1.2-4.1c0-2.4-.9-4.4-2.7-6-1.8-1.6-4-2.4-6.5-2.4-2.8 0-5.2 1-7.1 2.9s-2.9 4.3-2.9 7.2c0 2.6.9 4.9 2.7 6.9 1.8 2 4.3 2.9 7.6 2.9 2.1 0 4.2-.5 6.3-1.4.8-.3 1.8 0 2.1.9.3.8-.1 1.7-.9 2-2.5 1-5 1.6-7.6 1.6-4.3 0-7.7-1.3-10.2-3.8-2.5-2.6-3.8-5.6-3.8-9.1 0-3.7 1.3-6.8 4-9.3 2.6-2.5 5.9-3.7 9.6-3.7 3.6 0 6.6 1.1 9 3.3s3.6 4.8 3.6 7.9c0 2.4-.7 4.5-2.2 6.2-1.3 1.8-3 2.6-5 2.6z"/><defs><path id="adSVGID_7_" d="M33.7 41.5L75 78l41.3-36.5H33.7zm46.8 22.8c-1.4 0-2.4-.5-3.1-1.6-.9 1.1-2.1 1.6-3.4 1.6-1.5 0-2.7-.6-3.8-1.8-1.1-1.2-1.6-2.8-1.6-4.8s.6-3.7 1.8-5c1.2-1.3 2.6-1.9 4.3-1.9 1 0 2 .4 2.9 1.1l.2-.8h3.4l-1 8c-.1.6-.1 1-.1 1.4 0 .5.2.8.7.8.9 0 1.7-.5 2.5-1.6s1.2-2.5 1.2-4.1c0-2.4-.9-4.4-2.7-6-1.8-1.6-4-2.4-6.5-2.4-2.8 0-5.2 1-7.1 2.9s-2.9 4.3-2.9 7.2c0 2.6.9 4.9 2.7 6.9 1.8 2 4.3 2.9 7.6 2.9 2.1 0 4.2-.5 6.3-1.4.8-.3 1.8 0 2.1.9.3.8-.1 1.7-.9 2-2.5 1-5 1.6-7.6 1.6-4.3 0-7.7-1.3-10.2-3.8-2.5-2.6-3.8-5.6-3.8-9.1 0-3.7 1.3-6.8 4-9.3 2.6-2.5 5.9-3.7 9.6-3.7 3.6 0 6.6 1.1 9 3.3s3.6 4.8 3.6 7.9c0 2.4-.7 4.5-2.2 6.2-1.3 1.8-3 2.6-5 2.6z"/></defs><clipPath id="adSVGID_8_"><use xlink:href="#adSVGID_7_" overflow="visible"/></clipPath><g class="adst6"><path id="adl" class="adst3" d="M-190.4-1641.7h2065v2987h-2065v-2987z"/></g></g><g><path id="adm" class="adst1" d="M74.8 54.2c-.7 0-1.3.3-1.8 1s-.7 1.5-.7 2.6c0 .9.2 1.6.5 2.2.4.6.8.9 1.4.9.8 0 1.6-.4 2.2-1.2.6-.7.9-1.7.9-2.7 0-.8-.2-1.5-.7-2-.6-.5-1.1-.8-1.8-.8"/><defs><path id="adSVGID_9_" d="M74.8 54.2c-.7 0-1.3.3-1.8 1s-.7 1.5-.7 2.6c0 .9.2 1.6.5 2.2.4.6.8.9 1.4.9.8 0 1.6-.4 2.2-1.2.6-.7.9-1.7.9-2.7 0-.8-.2-1.5-.7-2-.6-.5-1.1-.8-1.8-.8"/></defs><clipPath id="adSVGID_10_"><use xlink:href="#adSVGID_9_" overflow="visible"/></clipPath><g class="adst7"><path id="ado" class="adst3" d="M-190.4-1641.7h2065v2987h-2065v-2987z"/></g></g></svg><svg version="1.1" id="events-circle-icon" y="299" viewBox="-10 -10 170 170" xml:space="preserve" width="170" height="170" xmlns="http://www.w3.org/2000/svg"><style>.aest0,.aest1{fill-rule:evenodd;clip-rule:evenodd;fill:#2f779d}.aest1{fill:#fff}</style><circle class="aest0" cx="75" cy="75" r="75"/><path class="aest1" d="M64.5 76c0-1-.8-1.8-1.8-1.8h-6.2c-1 0-1.8.8-1.8 1.8v6.2c0 1 .8 1.8 1.8 1.8h6.2c1 0 1.8-.8 1.8-1.8V76zm15.3 0c0-1-.8-1.8-1.8-1.8h-6.2c-1 0-1.8.8-1.8 1.8v6.2c0 1 .8 1.8 1.8 1.8H78c1 0 1.8-.8 1.8-1.8V76zm15.4 0c0-1-.8-1.8-1.8-1.8h-6.2c-1 0-1.8.8-1.8 1.8v6.2c0 1 .8 1.8 1.8 1.8h6.2c1 0 1.8-.8 1.8-1.8V76zM64.5 91.4c0-1-.8-1.8-1.8-1.8h-6.2c-1 0-1.8.8-1.8 1.8v6.2c0 1 .8 1.8 1.8 1.8h6.2c1 0 1.8-.8 1.8-1.8v-6.2zm15.3 0c0-1-.8-1.8-1.8-1.8h-6.2c-1 0-1.8.8-1.8 1.8v6.2c0 1 .8 1.8 1.8 1.8H78c1 0 1.8-.8 1.8-1.8v-6.2zm15.4 0c0-1-.8-1.8-1.8-1.8h-6.2c-1 0-1.8.8-1.8 1.8v6.2c0 1 .8 1.8 1.8 1.8h6.2c1 0 1.8-.8 1.8-1.8v-6.2z"/><path class="aest1" d="M106.2 41.8v9.4c0 4.2-3.4 7.7-7.7 7.7h-4.9c-4.2 0-7.7-3.4-7.7-7.7v-9.4H64.1v9.4c0 4.2-3.5 7.7-7.7 7.7h-4.9c-4.2 0-7.7-3.4-7.7-7.7v-9.4c-3.7.1-6.8 3.2-6.8 7v55.1c0 3.8 3.1 7 7 7h62c3.8 0 7-3.2 7-7V48.8c0-3.8-3.1-6.9-6.8-7zm-2.2 58.6c0 1.7-1.3 3-3 3H49c-1.7 0-3-1.3-3-3V72c0-1.7 1.3-3 3-3h52c1.7 0 3 1.3 3 3v28.4z"/><path class="aest1" d="M51.5 53.8h4.8c1.5 0 2.6-1.2 2.6-2.6V35.8c0-1.5-1.2-2.6-2.6-2.6h-4.8c-1.5 0-2.6 1.2-2.6 2.6v15.4c-.1 1.5 1.1 2.6 2.6 2.6m42.1 0h4.8c1.5 0 2.6-1.2 2.6-2.6V35.8c0-1.5-1.2-2.6-2.6-2.6h-4.8c-1.5 0-2.6 1.2-2.6 2.6v15.4c0 1.5 1.2 2.6 2.6 2.6"/></svg><svg viewBox="-11 -10.999 35.003 33" width="35.003" height="33" id="external-link-blue-theme" y="469" xmlns="http://www.w3.org/2000/svg"><path d="M13.003 6.449v2.488c0 1.139-.936 2.063-2.089 2.063l-8.825.001C.936 11.001 0 10.077 0 8.938V2.807C0 1.669.936.745 2.089.745h4.385c.13 0 .232.1.232.23v.697a.228.228 0 01-.232.229H2.089c-.443-.022-.994.208-.994.838V8.87c0 .482.454 1.017.994 1.017l8.825-.001c.342-.022.915-.393.915-.949V6.449c0-.13.101-.23.231-.23h.711c.131 0 .232.1.232.23zM13 .459v4.035a.465.465 0 01-.791.323l-1.375-1.284-5.05 4.693a.252.252 0 01-.166.071.257.257 0 01-.167-.071l-1.17-1.211a.243.243 0 01-.073-.165c0-.057.029-.121.073-.164l5.024-4.62-1.4-1.285A.451.451 0 017.768.46c0-.252.21-.459.463-.459h4.305c.254 0 .464.207.464.459V.459z" fill="#00527d"/></svg><svg viewBox="-11 -11 30 38" width="30" height="38" id="facebook-blue-theme" y="502" xmlns="http://www.w3.org/2000/svg"><path d="M5.5 3H8V0H5.5C3.6 0 2 1.6 2 3.5V5H0v3h2v8h3V8h2.5L8 5H5V3.5c0-.3.2-.5.5-.5z" fill="#008e9a"/></svg><svg viewBox="-11 -11 30 38" width="30" height="38" id="facebook-hover-blue-theme" y="540" xmlns="http://www.w3.org/2000/svg"><path d="M5.5 3H8V0H5.5C3.6 0 2 1.6 2 3.5V5H0v3h2v8h3V8h2.5L8 5H5V3.5c0-.3.2-.5.5-.5z" fill="#f9a921"/></svg><svg viewBox="-11 -11 44 37" width="44" height="37" id="font-size-blue-theme" y="578" xmlns="http://www.w3.org/2000/svg"><path d="M5.098 6.224l1.658 4.3-3.039-.01 1.381-4.29zM2.259 15l1.023-3.017 3.818.038L8.297 15h2.137L6.442 4.04H4.066L0 15h2.259z" fill="#66bbc2"/><path d="M14.699 2.989l2.267 5.884-4.158-.013 1.891-5.871zM10.813 15l1.399-4.129 5.226.052L19.076 15H22L16.536 0h-3.25L7.721 15h3.092z" fill="#008e9a"/></svg><svg viewBox="-11 -11 44 44" width="44" height="44" id="gov-delivery-blue-theme" y="615" xmlns="http://www.w3.org/2000/svg"><path d="M19.367 12.148c-.001.35-.36.778-.711.775l-5.271-5.982-1.983 1.667c-.22.081-.482.083-.703.007L8.577 6.941l-5.31 6.057c-.35.004-.705-.425-.709-.775l5.099-5.852-5.626-4.389c-.029-.349.361-.741.71-.775l8.296 6.117 7.882-6.079c.35.03.737.426.711.775l-5.438 4.389 5.175 5.739zM1.763 0C.789 0 0 .859 0 1.915v11.537c0 1.058.783 1.915 1.763 1.915l2.982-.242-2.964 6.091c-.152 1.172.502.68.84.688l11.19-6.537h6.425c.974 0 1.764-.859 1.764-1.915V1.915C22 .857 21.217 0 20.236 0H1.763z" fill="#008e9a"/></svg><svg viewBox="-11 -11 44 44" width="44" height="44" id="gov-delivery-hover-blue-theme" y="659" xmlns="http://www.w3.org/2000/svg"><path d="M19.367 12.148c-.001.35-.36.778-.711.775l-5.271-5.982-1.983 1.667c-.22.081-.482.083-.703.007L8.577 6.941l-5.31 6.057c-.35.004-.705-.425-.709-.775l5.099-5.852-5.626-4.389c-.029-.349.361-.741.71-.775l8.296 6.117 7.882-6.079c.35.03.737.426.711.775l-5.438 4.389 5.175 5.739zM1.763 0C.789 0 0 .859 0 1.915v11.537c0 1.058.783 1.915 1.763 1.915l2.982-.242-2.964 6.091c-.152 1.172.502.68.84.688l11.19-6.537h6.425c.974 0 1.764-.859 1.764-1.915V1.915C22 .857 21.217 0 20.236 0H1.763z" fill="#f9a921"/></svg><svg viewBox="-11 -11 47 47" width="47" height="47" id="info-blue-theme" y="703" xmlns="http://www.w3.org/2000/svg"><defs><style>.alst0{fill:#4d4d4d}</style></defs><path class="alst0" d="M11.705.024C5.495.414.415 5.492.025 11.7a12.485 12.485 0 0013.28 13.276c6.209-.38 11.29-5.468 11.67-11.666A12.48 12.48 0 0011.705.024zm2.75 21.993h-3.9V10.131h3.9v11.886zm.629-15.575a2.579 2.579 0 11-5.159 0v-.12a2.578 2.578 0 115.159 0v.12z"/></svg><svg viewBox="-11 -11 40 40" width="40" height="40" xmlns:bx="https://boxy-svg.com" id="instagram-blue-theme" y="750" xmlns="http://www.w3.org/2000/svg"><path d="M9 0C6.555 0 6.249.011 5.29.054 4.331.099 3.679.25 3.105.472a4.393 4.393 0 00-1.594 1.039A4.372 4.372 0 00.472 3.105C.25 3.679.098 4.331.054 5.29.009 6.249 0 6.555 0 9c0 2.445.011 2.751.054 3.71.045.959.196 1.612.418 2.185.23.592.538 1.095 1.039 1.594.499.501 1.001.81 1.594 1.038.574.223 1.226.375 2.185.419.959.045 1.265.054 3.71.054 2.445 0 2.751-.011 3.71-.054.959-.045 1.612-.196 2.185-.419a4.377 4.377 0 001.594-1.038 4.356 4.356 0 001.038-1.594c.223-.574.375-1.226.419-2.185.045-.959.054-1.265.054-3.71 0-2.445-.011-2.751-.054-3.71-.045-.959-.196-1.612-.419-2.185a4.377 4.377 0 00-1.038-1.594A4.372 4.372 0 0014.895.472C14.321.25 13.669.098 12.71.054 11.751.009 11.445 0 9 0zM5.32 1.641c.956-.033 6.369-.01 7.317.033.878.04 1.353.187 1.671.31.42.164.72.358 1.035.673.315.315.509.614.672 1.035.124.317.27.793.311 1.671.043.949.053 1.234.053 3.637s-.011 2.689-.056 3.637c-.045.878-.192 1.353-.315 1.671-.169.42-.36.72-.675 1.035a2.816 2.816 0 01-1.035.672c-.315.124-.799.27-1.677.311-.956.043-1.237.053-3.645.053-2.407 0-2.688-.011-3.645-.056-.877-.045-1.361-.192-1.676-.315a2.808 2.808 0 01-1.035-.675 2.761 2.761 0 01-.675-1.035c-.124-.315-.27-.799-.315-1.677-.034-.945-.045-1.237-.045-3.633 0-2.397.011-2.689.045-3.645.045-.878.191-1.362.315-1.677.158-.427.36-.72.675-1.035a2.677 2.677 0 011.035-.675c.315-.123.788-.27 1.665-.315zM9 4.378a4.622 4.622 0 100 9.243 4.622 4.622 0 000-9.243zM9 12a3 3 0 110-6 3 3 0 010 6zm5.884-7.804a1.08 1.08 0 11-2.161-.001 1.08 1.08 0 012.161.001z" bx:origin="0.5 0.5" fill="#008e9a"/></svg><svg viewBox="-11 -11 40 40" width="40" height="40" xmlns:bx="https://boxy-svg.com" id="instagram-hover-blue-theme" y="790" xmlns="http://www.w3.org/2000/svg"><path d="M9 0C6.555 0 6.249.011 5.29.054 4.331.099 3.679.25 3.105.472a4.393 4.393 0 00-1.594 1.039A4.372 4.372 0 00.472 3.105C.25 3.679.098 4.331.054 5.29.009 6.249 0 6.555 0 9c0 2.445.011 2.751.054 3.71.045.959.196 1.612.418 2.185.23.592.538 1.095 1.039 1.594.499.501 1.001.81 1.594 1.038.574.223 1.226.375 2.185.419.959.045 1.265.054 3.71.054 2.445 0 2.751-.011 3.71-.054.959-.045 1.612-.196 2.185-.419a4.377 4.377 0 001.594-1.038 4.356 4.356 0 001.038-1.594c.223-.574.375-1.226.419-2.185.045-.959.054-1.265.054-3.71 0-2.445-.011-2.751-.054-3.71-.045-.959-.196-1.612-.419-2.185a4.377 4.377 0 00-1.038-1.594A4.372 4.372 0 0014.895.472C14.321.25 13.669.098 12.71.054 11.751.009 11.445 0 9 0zM5.32 1.641c.956-.033 6.369-.01 7.317.033.878.04 1.353.187 1.671.31.42.164.72.358 1.035.673.315.315.509.614.672 1.035.124.317.27.793.311 1.671.043.949.053 1.234.053 3.637s-.011 2.689-.056 3.637c-.045.878-.192 1.353-.315 1.671-.169.42-.36.72-.675 1.035a2.816 2.816 0 01-1.035.672c-.315.124-.799.27-1.677.311-.956.043-1.237.053-3.645.053-2.407 0-2.688-.011-3.645-.056-.877-.045-1.361-.192-1.676-.315a2.808 2.808 0 01-1.035-.675 2.761 2.761 0 01-.675-1.035c-.124-.315-.27-.799-.315-1.677-.034-.945-.045-1.237-.045-3.633 0-2.397.011-2.689.045-3.645.045-.878.191-1.362.315-1.677.158-.427.36-.72.675-1.035a2.677 2.677 0 011.035-.675c.315-.123.788-.27 1.665-.315zM9 4.378a4.622 4.622 0 100 9.243 4.622 4.622 0 000-9.243zM9 12a3 3 0 110-6 3 3 0 010 6zm5.884-7.804a1.08 1.08 0 11-2.161-.001 1.08 1.08 0 012.161.001z" bx:origin="0.5 0.5" fill="#f9a921"/></svg><svg viewBox="-11 -11 36 35" width="36" height="35" id="linkedin-blue-theme" y="830" xmlns="http://www.w3.org/2000/svg"><path d="M5 4h2.767v1.418h.04C8.192 4.727 9.134 4 10.539 4 13.46 4 14 5.818 14 8.183V13h-2.885V8.73c0-1.018-.021-2.329-1.5-2.329-1.502 0-1.732 1.109-1.732 2.255V13H5V4zM0 4h3v9H0V4zM3 1.5a1.5 1.5 0 11-3.001-.001A1.5 1.5 0 013 1.5z" fill="#008e9a"/></svg><svg viewBox="-11 -11 36 35" width="36" height="35" id="linkedin-hover-blue-theme" y="865" xmlns="http://www.w3.org/2000/svg"><path d="M5 4h2.767v1.418h.04C8.192 4.727 9.134 4 10.539 4 13.46 4 14 5.818 14 8.183V13h-2.885V8.73c0-1.018-.021-2.329-1.5-2.329-1.502 0-1.732 1.109-1.732 2.255V13H5V4zM0 4h3v9H0V4zM3 1.5a1.5 1.5 0 11-3.001-.001A1.5 1.5 0 013 1.5z" fill="#f9a921"/></svg><svg viewBox="-11 -11 45 36" width="45" height="36" id="mail-envelope-closed-blue-theme" y="900" xmlns="http://www.w3.org/2000/svg"><defs><style>.aqst0{fill:#008e9a}</style></defs><path class="aqst0" d="M21.5 0l-10 8.7L1.5 0h20zM.31 13.73c-.19-.19-.31-.45-.31-.74V1.01C0 .72.12.46.32.28L8.05 7 .31 13.73zM1.5 14l7.3-6.35L11.5 10l2.7-2.35L21.5 14h-20zM23 12.99c0 .29-.12.55-.32.73L14.95 7 22.69.27c.19.19.31.45.31.74v11.98z"/></svg><svg viewBox="-11 -11.01 47 40.01" width="47" height="40.01" id="menu-blue-theme" y="936" xmlns="http://www.w3.org/2000/svg"><defs><style>.arst0{fill:#4d4d4d}</style></defs><path class="arst0" d="M25 3.99H0v-4h25v4zm0 3H0v4h25v-4zM25 14H0v4h25v-4z"/></svg><svg viewBox="-11 -11 36.85 41.14" width="36.85" height="41.14" id="pinterest-blue-theme" y="977" xmlns="http://www.w3.org/2000/svg"><path d="M7.85 0C2.7 0 0 3.68 0 6.86c0 1.84.74 3.55 2.21 4.17.25.12.49 0 .49-.25s.12-.74.25-.86c.12-.25 0-.37-.12-.61-.49-.49-.74-1.23-.74-2.08 0-2.7 2.08-5.27 5.39-5.27 2.94 0 4.54 1.84 4.54 4.17 0 3.19-1.35 5.76-3.43 5.76-1.1 0-1.96-.98-1.72-2.08.37-1.35.98-2.82.98-3.92 0-.86-.49-1.59-1.47-1.59-1.23 0-2.08 1.23-2.08 2.82 0 .98.37 1.72.37 1.72s-1.23 5.03-1.35 6.01c-.37 1.72-.12 3.92 0 4.17 0 .12.12.12.25.12.12-.12 1.47-1.84 1.96-3.55.12-.49.74-2.94.74-2.94.37.74 1.47 1.35 2.7 1.35 3.55 0 5.88-3.19 5.88-7.48-.14-3.58-2.84-6.52-7-6.52z" fill="#008e9a"/></svg><svg viewBox="-11 -11 36.85 41.14" width="36.85" height="41.14" id="pinterest-hover-blue-theme" y="1019" xmlns="http://www.w3.org/2000/svg"><path d="M7.85 0C2.7 0 0 3.68 0 6.86c0 1.84.74 3.55 2.21 4.17.25.12.49 0 .49-.25s.12-.74.25-.86c.12-.25 0-.37-.12-.61-.49-.49-.74-1.23-.74-2.08 0-2.7 2.08-5.27 5.39-5.27 2.94 0 4.54 1.84 4.54 4.17 0 3.19-1.35 5.76-3.43 5.76-1.1 0-1.96-.98-1.72-2.08.37-1.35.98-2.82.98-3.92 0-.86-.49-1.59-1.47-1.59-1.23 0-2.08 1.23-2.08 2.82 0 .98.37 1.72.37 1.72s-1.23 5.03-1.35 6.01c-.37 1.72-.12 3.92 0 4.17 0 .12.12.12.25.12.12-.12 1.47-1.84 1.96-3.55.12-.49.74-2.94.74-2.94.37.74 1.47 1.35 2.7 1.35 3.55 0 5.88-3.19 5.88-7.48-.14-3.58-2.84-6.52-7-6.52z" fill="#f9a921"/></svg><svg viewBox="-11 -11 45 41" width="45" height="41" id="printer-blue-theme" y="1061" xmlns="http://www.w3.org/2000/svg"><defs><style>.aust0{fill:#008e9a}</style></defs><path class="aust0" d="M19.03 14.25H23v-9.5h-3.97V0H3.98v4.75H0v9.5h3.97V19h15.07v-4.75zM18.24.79v3.96H4.77V.79m0 8.05h13.49v9.37H4.77V8.84z"/><path class="aust0" d="M5.56 13.46h11.9v.79H5.56zM5.56 15.84h11.9v.79H5.56zM5.56 11.08h11.9v.79H5.56z"/></svg><svg version="1.1" id="publications-circle-icon" y="1102" viewBox="-10 -10 170 170" xml:space="preserve" width="170" height="170" xmlns="http://www.w3.org/2000/svg"><style>.avst0,.avst1{fill-rule:evenodd;clip-rule:evenodd;fill:#00527d}.avst1{fill:#fff}</style><g id="avLayer_1_1_"><g id="avHOMEPAGE"><g id="avAnnotated-Homepage---Desktop" transform="translate(-493 -1641)"><g id="avSOCIAL-MEDIA-ROW" transform="translate(121 1559)"><g id="avFacebook" transform="translate(303 52)"><g id="avfacebook-circle-icon" transform="translate(69 30)"><circle id="avMask" class="avst0" cx="75" cy="75" r="75"/></g></g></g></g></g><path class="avst1" d="M98.7 50.9c0-1.8-.7-3.4-1.9-4.7l-6.2-6.3c-1.2-1.2-3-1.9-4.7-1.9h-.4v13.3h13.3l-.1-.4z"/><path class="avst1" d="M93.1 93l-6.8 2.3-1 .1c-1.7 0-3.3-.8-4.4-2.2-1-1.4-1.3-3.2-.7-4.8l2-6.1c.4-1.2 1.1-2.4 2.1-3.3l14.5-14.4v-9.3H83.7c-1.2 0-2.1-1-2.1-2.1V38H49.4c-3.5 0-6.4 2.9-6.4 6.4v60.2c0 3.5 2.9 6.4 6.4 6.4h42.8c3.5 0 6.5-2.9 6.5-6.4v-16l-2.4 2.3c-.9 1-2 1.6-3.2 2.1M53.7 59.4h30c1.2 0 2.1 1 2.1 2.1 0 1.2-1 2.1-2.1 2.1h-30c-1.2 0-2.1-1-2.1-2.1 0-1.2.9-2.1 2.1-2.1m0 8.5h21.4c1.2 0 2.1 1 2.1 2.1s-1 2.1-2.1 2.1H53.7c-1.2 0-2.1-1-2.1-2.1s.9-2.1 2.1-2.1m0 8.6h21.4c1.2 0 2.1 1 2.1 2.1s-1 2.1-2.1 2.1H53.7c-1.2 0-2.1-1-2.1-2.1s.9-2.1 2.1-2.1m-2.1 10.7c0-1.2 1-2.1 2.1-2.1h21.4c1.2 0 2.1 1 2.1 2.1s-1 2.1-2.1 2.1H53.7c-1.2 0-2.1-.9-2.1-2.1m32.1 15H70.8c-1.2 0-2.1-1-2.1-2.1 0-1.2 1-2.1 2.1-2.1h12.9c1.2 0 2.1 1 2.1 2.1s-.9 2.1-2.1 2.1"/><path class="avst1" d="M85.5 91l5.3-1.8-4.8-4.7-1.8 5.3c-.3.7.5 1.5 1.3 1.2m2.6-11.2l6 6L108 71.9l-6-6-13.9 13.9zm26.6-19.3c-.8-.8-1.9-1.2-3.1-1.2s-2.3.4-3.1 1.2l-3.2 3.2 6.2 6.2 3.2-3.2c1.7-1.7 1.7-4.5 0-6.2"/></g></svg><svg viewBox="-11 -11 40 40" width="40" height="40" id="rss-blue-theme" y="1272" xmlns="http://www.w3.org/2000/svg"><path d="M14.4 18C14.4 10.1 7.9 3.6 0 3.6V0c9.874 0 18 8.126 18 18h-3.6zM2.468 13.061a2.474 2.474 0 012.47 2.471A2.477 2.477 0 012.463 18 2.466 2.466 0 010 15.532a2.471 2.471 0 012.468-2.47zM11.932 18H8.433c0-4.627-3.806-8.434-8.433-8.434V6.067c6.545 0 11.932 5.389 11.932 11.933z" fill="#008e9a"/></svg><svg viewBox="-11 -11 40 40" width="40" height="40" id="rss-hover-blue-theme" y="1312" xmlns="http://www.w3.org/2000/svg"><path d="M14.4 18C14.4 10.1 7.9 3.6 0 3.6V0c9.874 0 18 8.126 18 18h-3.6zM2.468 13.061a2.474 2.474 0 012.47 2.471A2.477 2.477 0 012.463 18 2.466 2.466 0 010 15.532a2.471 2.471 0 012.468-2.47zM11.932 18H8.433c0-4.627-3.806-8.434-8.433-8.434V6.067c6.545 0 11.932 5.389 11.932 11.933z" fill="#f9a921"/></svg><svg viewBox="-11 -11 38.001 38.003" width="38.001" height="38.003" id="search-blue-theme" y="1352" xmlns="http://www.w3.org/2000/svg"><defs><style>.ayst0{fill:#4d4d4d}</style></defs><path class="ayst0" d="M15.56 15.56c-.59.59-1.54.59-2.12 0l-2.65-2.65c-1.09.7-2.38 1.12-3.77 1.12C3.14 14.02 0 10.89 0 7.01 0 3.13 3.14 0 7.01 0c3.87 0 7.01 3.14 7.01 7.01 0 1.39-.42 2.68-1.12 3.77l2.65 2.65c.6.59.6 1.54.01 2.13zM7.01 2C4.25 2 2 4.24 2 7.01c0 2.77 2.24 5.01 5.01 5.01 2.77 0 5.01-2.24 5.01-5.01C12.02 4.24 9.78 2 7.01 2z"/></svg><svg viewBox="-11 -11 48 48" width="48" height="48" id="search-large-blue-theme" y="1391" xmlns="http://www.w3.org/2000/svg"><defs><style>.azst0{fill:#4d4d4d}</style></defs><path class="azst0" d="M25.283 25.281a2.422 2.422 0 01-3.445 0l-4.305-4.305c-1.771 1.137-3.867 1.819-6.126 1.819C5.103 22.779 0 17.693 0 11.39 0 5.085 5.103 0 11.391 0c6.287 0 11.39 5.102 11.39 11.39 0 2.258-.683 4.353-1.819 6.125l4.305 4.305c.975.959.975 2.503.016 3.461zM11.391 3.25c-4.485 0-8.141 3.638-8.141 8.14 0 4.5 3.639 8.14 8.141 8.14a8.135 8.135 0 008.141-8.14c0-4.502-3.64-8.14-8.141-8.14z"/></svg><svg viewBox="-11 -11 41 37.525" width="41" height="37.525" id="twitter-blue-theme" y="1439" xmlns="http://www.w3.org/2000/svg"><path d="M19 1.848c-.717.293-1.424.536-2.263.596.829-.474 1.425-1.252 1.728-2.141-.768.414-1.606.768-2.495.95A3.892 3.892 0 0013.121 0a3.916 3.916 0 00-3.919 3.919c0 .293.061.596.121.889a11.131 11.131 0 01-8.02-4.04 3.729 3.729 0 00-.545 1.969c0 1.364.717 2.556 1.727 3.273a3.618 3.618 0 01-1.778-.475v.061c0 1.899 1.364 3.444 3.152 3.798-.354.061-.657.121-1.011.121-.242 0-.474 0-.717-.06.475 1.545 1.96 2.676 3.627 2.737-1.303 1.071-3.031 1.667-4.809 1.667-.292 0-.595 0-.949-.061 1.727 1.131 3.798 1.727 6 1.727 7.192 0 11.111-5.939 11.111-11.111v-.475c.758-.606 1.414-1.323 1.889-2.091z" fill="#008e9a"/></svg><svg version="1.1" id="twitter-circle-icon" y="1477" viewBox="-10 -10 170 170" xml:space="preserve" enable-background="new 0 0 150 150" width="170" height="170" xmlns="http://www.w3.org/2000/svg"><style>.bbst0{fill-rule:evenodd;clip-rule:evenodd;fill:#85c8f8}.bbst1{filter:url(#bbAdobe_OpacityMaskFilter)}.bbst2,.bbst3{fill-rule:evenodd;clip-rule:evenodd;fill:#fff}.bbst3{mask:url(#bbmask-2_1_)}</style><g id="bbCOMPS"><g id="bbDesktop-HD---1441" transform="translate(-190 -1548)"><g id="bbSOCIAL-MEDIA-ROW" transform="translate(121 1466)"><g id="bbTwitter" transform="translate(0 52)"><g id="bbtwitter-circle-icon" transform="translate(69 30)"><g id="bbMask"><circle id="bbpath-1_1_" class="bbst0" cx="75" cy="75" r="75"/></g><defs><filter id="bbAdobe_OpacityMaskFilter" filterUnits="userSpaceOnUse" x="34.9" y="39.5" width="89.8" height="73"><feColorMatrix values="1 0 0 0 0 0 1 0 0 0 0 0 1 0 0 0 0 0 1 0"/></filter></defs><mask maskUnits="userSpaceOnUse" x="34.9" y="39.5" width="89.8" height="73" id="bbmask-2_1_"><g class="bbst1"><circle id="bbpath-1_2_" class="bbst2" cx="75" cy="75" r="75"/></g></mask><path id="bbFill-4" class="bbst3" d="M124.7 48.1c-3.3 1.5-6.9 2.5-10.6 2.9 3.8-2.3 6.7-5.9 8.1-10.2-3.6 2.1-7.5 3.6-11.7 4.5-3.4-3.6-8.2-5.8-13.5-5.8-10.2 0-18.4 8.3-18.4 18.4 0 1.4.2 2.9.5 4.2-15.3-.8-28.9-8.1-38-19.3-1.6 2.7-2.5 5.9-2.5 9.3 0 6.4 3.3 12 8.2 15.3-3-.1-5.9-.9-8.3-2.3v.2c0 8.9 6.4 16.4 14.8 18.1-1.5.4-3.2.7-4.9.7-1.2 0-2.3-.1-3.5-.3 2.3 7.3 9.2 12.7 17.2 12.8-6.3 4.9-14.3 7.9-22.9 7.9-1.5 0-3-.1-4.4-.3 8.2 5.2 17.8 8.3 28.3 8.3 33.9 0 52.5-28.1 52.5-52.4 0-.8 0-1.6-.1-2.4 3.6-2.6 6.7-5.9 9.2-9.6"/></g></g></g></g></g></svg><svg viewBox="-11 -11 41 37.525" width="41" height="37.525" id="twitter-hover-blue-theme" y="1647" xmlns="http://www.w3.org/2000/svg"><path d="M19 1.848c-.717.293-1.424.536-2.263.596.829-.474 1.425-1.252 1.728-2.141-.768.414-1.606.768-2.495.95A3.892 3.892 0 0013.121 0a3.916 3.916 0 00-3.919 3.919c0 .293.061.596.121.889a11.131 11.131 0 01-8.02-4.04 3.729 3.729 0 00-.545 1.969c0 1.364.717 2.556 1.727 3.273a3.618 3.618 0 01-1.778-.475v.061c0 1.899 1.364 3.444 3.152 3.798-.354.061-.657.121-1.011.121-.242 0-.474 0-.717-.06.475 1.545 1.96 2.676 3.627 2.737-1.303 1.071-3.031 1.667-4.809 1.667-.292 0-.595 0-.949-.061 1.727 1.131 3.798 1.727 6 1.727 7.192 0 11.111-5.939 11.111-11.111v-.475c.758-.606 1.414-1.323 1.889-2.091z" fill="#f9a921"/></svg><svg viewBox="-11 -11.001 40 43.766" width="40" height="43.766" id="youtube-blue-theme" y="1685" xmlns="http://www.w3.org/2000/svg"><path d="M11.466 15.108v2.564c0 .546-.158.814-.473.814-.182 0-.366-.086-.548-.268v-3.656c.182-.182.366-.267.548-.267.315 0 .473.28.473.813zm4.105.013v.559h-1.094v-.559c0-.546.182-.826.548-.826.364 0 .546.28.546.826zM3.838 12.474h1.298v-1.141H1.348v1.141h1.276v6.911h1.214v-6.911zm3.499 6.911h1.081v-5.999H7.337v4.591c-.245.34-.475.509-.694.509-.145 0-.231-.086-.255-.255-.012-.037-.012-.172-.012-.426v-4.42H5.294v4.747c0 .426.037.706.099.889.096.304.351.449.704.449.387 0 .8-.244 1.239-.741v.655zm5.209-1.798v-2.393c0-.559-.023-.959-.109-1.203-.133-.449-.436-.678-.862-.678-.401 0-.778.218-1.131.655v-2.635h-1.08v8.051h1.08v-.582c.367.45.741.668 1.131.668.426 0 .73-.232.862-.668.085-.257.109-.657.109-1.216zm4.106-.122v-.156h-1.104c0 .436-.014.678-.026.74-.06.291-.218.437-.486.437-.374 0-.559-.278-.559-.837v-1.058h2.175V15.34c0-.642-.11-1.105-.328-1.409-.317-.413-.74-.618-1.288-.618-.559 0-.982.205-1.299.618-.232.304-.341.766-.341 1.409v2.102c0 .643.122 1.117.353 1.408.314.413.741.621 1.312.621.569 0 1.019-.218 1.311-.644.133-.194.229-.413.255-.655.024-.112.024-.353.024-.706zM9.267 6.375V3.827c0-.559-.157-.839-.522-.839-.353 0-.522.28-.522.839v2.548c0 .559.169.853.522.853.365 0 .522-.294.522-.853zM18 15.498c0 1.398-.013 2.892-.317 4.251-.228.961-1.008 1.666-1.941 1.762-2.237.254-4.495.254-6.742.254s-4.505 0-6.74-.254c-.935-.096-1.725-.8-1.943-1.762C0 18.39 0 16.896 0 15.498c0-1.409.013-2.892.317-4.251.228-.958 1.008-1.665 1.954-1.774C4.495 9.231 6.753 9.231 9 9.231s4.505 0 6.742.242c.933.11 1.723.816 1.941 1.774.317 1.359.317 2.842.317 4.251zM5.879 0h1.237L5.648 4.845v3.292H4.432V4.845c-.109-.595-.351-1.444-.74-2.575-.268-.754-.536-1.518-.79-2.271H4.19l.862 3.193zm4.493 4.045v2.124c0 .645-.109 1.131-.341 1.433-.304.413-.728.62-1.286.62-.545 0-.972-.207-1.276-.62-.23-.315-.34-.788-.34-1.433V4.045c0-.644.11-1.117.34-1.422.304-.412.731-.62 1.276-.62.559 0 .985.208 1.286.62.232.305.341.778.341 1.422zm4.068-1.969v6.062h-1.104V7.47c-.436.509-.849.753-1.252.753-.351 0-.605-.145-.714-.449-.062-.182-.099-.472-.099-.912V2.079h1.107v4.456c0 .254 0 .4.01.426.026.169.11.267.255.267.221 0 .449-.171.694-.522V2.079h1.104z" fill="#008e9a"/></svg><svg viewBox="-11 -11.001 40 43.766" width="40" height="43.766" id="youtube-hover-blue-theme" y="1729" xmlns="http://www.w3.org/2000/svg"><path d="M11.466 15.108v2.564c0 .546-.158.814-.473.814-.182 0-.366-.086-.548-.268v-3.656c.182-.182.366-.267.548-.267.315 0 .473.28.473.813zm4.105.013v.559h-1.094v-.559c0-.546.182-.826.548-.826.364 0 .546.28.546.826zM3.838 12.474h1.298v-1.141H1.348v1.141h1.276v6.911h1.214v-6.911zm3.499 6.911h1.081v-5.999H7.337v4.591c-.245.34-.475.509-.694.509-.145 0-.231-.086-.255-.255-.012-.037-.012-.172-.012-.426v-4.42H5.294v4.747c0 .426.037.706.099.889.096.304.351.449.704.449.387 0 .8-.244 1.239-.741v.655zm5.209-1.798v-2.393c0-.559-.023-.959-.109-1.203-.133-.449-.436-.678-.862-.678-.401 0-.778.218-1.131.655v-2.635h-1.08v8.051h1.08v-.582c.367.45.741.668 1.131.668.426 0 .73-.232.862-.668.085-.257.109-.657.109-1.216zm4.106-.122v-.156h-1.104c0 .436-.014.678-.026.74-.06.291-.218.437-.486.437-.374 0-.559-.278-.559-.837v-1.058h2.175V15.34c0-.642-.11-1.105-.328-1.409-.317-.413-.74-.618-1.288-.618-.559 0-.982.205-1.299.618-.232.304-.341.766-.341 1.409v2.102c0 .643.122 1.117.353 1.408.314.413.741.621 1.312.621.569 0 1.019-.218 1.311-.644.133-.194.229-.413.255-.655.024-.112.024-.353.024-.706zM9.267 6.375V3.827c0-.559-.157-.839-.522-.839-.353 0-.522.28-.522.839v2.548c0 .559.169.853.522.853.365 0 .522-.294.522-.853zM18 15.498c0 1.398-.013 2.892-.317 4.251-.228.961-1.008 1.666-1.941 1.762-2.237.254-4.495.254-6.742.254s-4.505 0-6.74-.254c-.935-.096-1.725-.8-1.943-1.762C0 18.39 0 16.896 0 15.498c0-1.409.013-2.892.317-4.251.228-.958 1.008-1.665 1.954-1.774C4.495 9.231 6.753 9.231 9 9.231s4.505 0 6.742.242c.933.11 1.723.816 1.941 1.774.317 1.359.317 2.842.317 4.251zM5.879 0h1.237L5.648 4.845v3.292H4.432V4.845c-.109-.595-.351-1.444-.74-2.575-.268-.754-.536-1.518-.79-2.271H4.19l.862 3.193zm4.493 4.045v2.124c0 .645-.109 1.131-.341 1.433-.304.413-.728.62-1.286.62-.545 0-.972-.207-1.276-.62-.23-.315-.34-.788-.34-1.433V4.045c0-.644.11-1.117.34-1.422.304-.412.731-.62 1.276-.62.559 0 .985.208 1.286.62.232.305.341.778.341 1.422zm4.068-1.969v6.062h-1.104V7.47c-.436.509-.849.753-1.252.753-.351 0-.605-.145-.714-.449-.062-.182-.099-.472-.099-.912V2.079h1.107v4.456c0 .254 0 .4.01.426.026.169.11.267.255.267.221 0 .449-.171.694-.522V2.079h1.104z" fill="#f9a921"/></svg></svg>